<svg xmlns="http://www.w3.org/2000/svg" viewBox="0 0 272.56 461.69"><defs><style>.cls-1,.cls-4{fill:#fff;}.cls-2{fill:#25103e;}.cls-3{fill:#310b3a;}.cls-4{font-size:103px;font-family:PassionOne-Bold, Passion One;font-weight:700;}</style></defs><title>Ativo 3CoosyLogo</title><g id="Camada_2" data-name="Camada 2"><g id="Camada_1-2" data-name="Camada 1"><path class="cls-1" d="M185.61,148.57A76.44,76.44,0,1,1,188.4,5.36a36.05,36.05,0,0,0-17.14,30.71,37.32,37.32,0,0,0,.53,6.2,36.07,36.07,0,1,0,.71,68.1,36.11,36.11,0,0,0,13.11,38.2Z"/><path class="cls-2" d="M234.78,59.47a36.08,36.08,0,0,1-39,10.77h0a36.1,36.1,0,0,0-24-28h0a37.32,37.32,0,0,1-.53-6.2A36.05,36.05,0,0,1,188.4,5.36,76.59,76.59,0,0,1,234.78,59.47Z"/><path class="cls-2" d="M234.22,95.73a76.6,76.6,0,0,1-48.61,52.84,36.11,36.11,0,0,1-13.11-38.2h0a36.12,36.12,0,0,0,22.55-24.52,36.15,36.15,0,0,1,39.17,9.88Z"/><path class="cls-3" d="M199.94,317.1l-.45.17v-.35Z"/><path class="cls-1" d="M221.17,182.35A88.44,88.44,0,0,1,192,201.83l-.77.32-.25-.1a.61.61,0,0,1,0,.19c0,.1,0,.21,0,.31v16.16a115.51,115.51,0,0,1-63.31,99.81l7.47-124.06c0-.15,3.46-3.65-1,1,0-.16,0,.15,0,0-.34.12.34-3.13,0-3-.1,0-8,16-6,11-2-1-20.3-10.13-27.91-17.52a56.79,56.79,0,0,0,18.31-25.06,86.25,86.25,0,0,0,19,7.16c6.81,1.71,14.29,10.42,21.63,10.42,7.67,0,15.92-9.14,23-11A76.9,76.9,0,0,0,200,160.4,56.82,56.82,0,0,0,221.17,182.35Z"/><path class="cls-2" d="M191.78,215.19c0,1.18,0,2.35-.06,3.52a115.45,115.45,0,0,1-63.8,99.81,112.38,112.38,0,0,1-16.39,6.69,113.9,113.9,0,0,1-19.89,4.46l-1.36,0a52.51,52.51,0,0,1-52.5-52.5,53.25,53.25,0,0,1,.86-9.52,115.27,115.27,0,0,0,72-38.89,115.8,115.8,0,0,0,17.32-26.67c0-.16,0-.32,0-.47l-1,.38-.32.13a89,89,0,0,1-26.35-16.21,56.85,56.85,0,0,0,18.45-25.06A87.46,87.46,0,0,0,137.83,168a89.44,89.44,0,0,0,43.81-.23,114.76,114.76,0,0,1,10.08,43.86C191.76,212.84,191.78,214,191.78,215.19Z"/><path class="cls-1" d="M127.93,202.11c0-.16,0-.32,0-.47l-1,.38-.32.13a89,89,0,0,1-26.35-16.21,56.85,56.85,0,0,0,18.45-25.06A87.46,87.46,0,0,0,137.83,168,114.34,114.34,0,0,1,127.93,202.11Z"/><path class="cls-1" d="M142.78,277.19a52.45,52.45,0,0,1-51.14,52.48l-1.36,0a52.51,52.51,0,0,1-52.5-52.5,53.25,53.25,0,0,1,.86-9.52,115.27,115.27,0,0,0,72-38.89,52.56,52.56,0,0,1,32.17,48.41Z"/><text class="cls-4" transform="translate(0 437.03)">Coosy</text></g></g></svg>